# xmcd
#
# Track frame offsets:
#	182
#	9527
#	24242
#	37950
#	47087
#	59067
#	70555
#	82932
#	95912
#	107575
#	120845
#	134962
#	151122
#	162855
#	180392
#
# Disc length: 2572
#
# Revision: 1
# Processed by: cddbd v1.5.1PL0 Copyright (c) Steve Scherf et al.
# Submitted via: dBpowerAMP V4.0
# Normalized: r0:TDELIM( - )
#
DISCID=b60a0a0f
DTITLE=Various Artist - Star Spangled Country (Disk 3)
DYEAR=1997
DGENRE=Country
TTITLE0=Charley Pride - Kiss An Angel Good Mornin'
TTITLE1=Ronnie Milsap - There's No Gettin' Over Me
TTITLE2=Conway Twitty - You've Never Been This Far Before
TTITLE3=Johnny Rodriguez - Just Get Up And Close The Door
TTITLE4=Lynn Anderson - You're My Man
TTITLE5=Kendalls - Heaven's Just A Sin Away
TTITLE6=Rex Allen Jr. - Two Less Lonely People
TTITLE7=Michael Martin Murphy - What's Forever For
TTITLE8=Freddy Fender - Before The Next Teardrop Falls
TTITLE9=Crystal Gayle - Talking In Your Sleep
TTITLE10=Billy "Crash" Craddock - Broken Down In Tiny Pieces
TTITLE11=Billie Jo Spears - Blanket On The Ground
TTITLE12=Dave and Sugar - Tear Time
TTITLE13=Eddie Rabbitt and Juice Newton - (Both To Each Other) Friends and Lovers
TTITLE14=Waylon Jennings and Willie Nelson - Just To Satisfy You
EXTD=Disk 3 of 3 in album
EXTT0=
EXTT1=
EXTT2=
EXTT3=
EXTT4=
EXTT5=
EXTT6=
EXTT7=
EXTT8=
EXTT9=
EXTT10=
EXTT11=
EXTT12=
EXTT13=
EXTT14=
PLAYORDER=
